<svg width="258" height="99" viewBox="0 0 258 99" fill="none" xmlns="http://www.w3.org/2000/svg">
<path d="M87.5563 83.888C87.3003 83.888 87.1723 83.792 87.1723 83.6C87.1723 83.472 87.3323 83.056 87.6523 82.352C87.9723 81.648 88.1323 80.976 88.1323 80.336C88.1323 79.184 87.5883 78.288 86.5003 77.648C85.4763 77.008 84.1963 76.528 82.6603 76.208C81.1883 75.952 79.7163 75.76 78.2443 75.632C76.8363 75.568 75.7483 75.504 74.9803 75.44C70.5003 75.056 65.9563 74.864 61.3483 74.864C57.8283 74.864 54.3403 74.928 50.8843 75.056C47.4283 75.248 43.9403 75.472 40.4203 75.728C37.7963 75.856 35.1403 76.048 32.4523 76.304C29.7643 76.56 27.1083 76.72 24.4843 76.784C22.1803 78.448 19.6523 79.824 16.9003 80.912C14.1483 82.064 11.3323 82.64 8.45225 82.64C7.23625 82.64 5.95625 82.416 4.61225 81.968C3.33225 81.584 2.24425 80.912 1.34825 79.952C0.51625 79.056 0.10025 77.872 0.10025 76.4C0.10025 75.76 0.26025 74.992 0.58025 74.096C0.83625 73.2 1.22025 72.4 1.73225 71.696C2.30825 70.992 2.98025 70.64 3.74825 70.64C3.42825 70.128 3.04425 69.424 2.59625 68.528C2.14825 67.568 1.92425 66.832 1.92425 66.32C1.92425 66.064 1.98825 65.808 2.11625 65.552C2.24425 65.296 2.43625 65.168 2.69225 65.168C2.88425 65.168 3.01225 65.264 3.07625 65.456C3.20425 65.648 3.30025 65.808 3.36425 65.936C3.49225 66.384 3.65225 66.8 3.84425 67.184C4.03625 67.504 4.29225 67.824 4.61225 68.144C5.76425 69.424 7.42825 70.384 9.60425 71.024C11.7803 71.664 14.0203 72.08 16.3243 72.272C18.6923 72.4 20.6763 72.464 22.2763 72.464H22.6603C23.3643 71.632 24.0363 70.8 24.6763 69.968C25.3803 69.136 26.0523 68.272 26.6923 67.376C29.7003 63.088 32.5483 58.512 35.2363 53.648C37.9243 48.72 40.6123 43.792 43.3003 38.864C46.0523 33.936 48.9323 29.2 51.9403 24.656C55.0123 20.112 58.3723 16.016 62.0203 12.368C58.9483 11.664 55.8123 11.152 52.6123 10.832C49.4763 10.448 46.3403 10.256 43.2043 10.256C39.1083 10.256 35.3643 10.736 31.9723 11.696C28.5803 12.656 25.2843 14.448 22.0843 17.072C20.2283 18.544 18.4043 20.304 16.6123 22.352C14.8843 24.336 13.4763 26.48 12.3883 28.784C11.3003 31.088 10.7563 33.52 10.7563 36.08C10.7563 37.232 10.8203 38.576 10.9483 40.112C11.1403 41.584 11.4603 43.024 11.9083 44.432C12.4203 45.84 13.1563 46.992 14.1163 47.888C15.0763 48.784 16.3563 49.232 17.9563 49.232C18.0843 49.232 18.2123 49.264 18.3403 49.328C18.5323 49.328 18.6283 49.424 18.6283 49.616C18.6283 49.808 18.4363 49.936 18.0523 50C17.7323 50.064 17.5083 50.096 17.3803 50.096C16.0363 50.096 14.6603 49.776 13.2523 49.136C10.8843 48.048 9.02825 46.576 7.68425 44.72C6.40425 42.8 5.76425 40.56 5.76425 38C5.76425 34.352 6.50025 31.088 7.97225 28.208C9.44425 25.328 11.3963 22.768 13.8282 20.528C16.3243 18.224 19.0443 16.208 21.9883 14.48C24.9963 12.752 27.9722 11.28 30.9163 10.064C33.7963 8.848 36.7723 8.016 39.8443 7.568C42.9803 7.12 46.1163 6.89599 49.2523 6.89599C52.0683 6.89599 54.9163 7.056 57.7963 7.376C60.6763 7.632 63.4923 8.016 66.2443 8.528C69.2523 6.096 72.5163 4.176 76.0363 2.768C79.6203 1.296 83.3643 0.559996 87.2683 0.559996C88.4203 0.559996 89.7003 0.687996 91.1083 0.943996C92.5163 1.2 93.7323 1.712 94.7563 2.47999C95.7803 3.184 96.2923 4.304 96.2923 5.84C96.2923 6.096 96.1963 6.64 96.0043 7.472C95.8123 8.24 95.5563 8.976 95.2363 9.68C94.9163 10.384 94.5963 10.736 94.2763 10.736C94.1483 10.736 94.0843 10.64 94.0843 10.448C94.0843 10.064 94.1483 9.712 94.2763 9.392C94.4043 9.008 94.4683 8.592 94.4683 8.144C94.4683 6.608 93.7963 5.456 92.4523 4.68799C91.1723 3.92 89.7003 3.408 88.0363 3.152C86.3723 2.896 84.9643 2.768 83.8123 2.768C80.8683 2.768 78.1483 3.344 75.6523 4.496C73.1563 5.584 70.8203 7.088 68.6443 9.008C71.5243 9.584 74.3723 10.256 77.1883 11.024C80.0683 11.728 82.9163 12.496 85.7323 13.328C87.7803 13.904 90.1483 14.544 92.8363 15.248C95.5243 15.952 97.9243 16.304 100.036 16.304C100.804 16.304 101.444 16.176 101.956 15.92C102.468 15.664 102.852 15.536 103.108 15.536C103.3 15.536 103.396 15.632 103.396 15.824C103.396 16.08 103.3 16.304 103.108 16.496C102.98 16.624 102.82 16.752 102.628 16.88C101.028 18.096 99.6523 19.056 98.5003 19.76C97.3483 20.4 95.6523 20.72 93.4123 20.72C92.0683 20.72 90.7243 20.592 89.3803 20.336C88.1003 20.08 86.8203 19.76 85.5403 19.376C82.0843 18.352 78.6603 17.264 75.2683 16.112C71.8763 14.96 68.4203 13.936 64.9003 13.04C62.9163 15.6 60.9643 18.672 59.0443 22.256C57.1883 25.776 55.3963 29.36 53.6683 33.008C52.0043 36.656 50.4363 39.984 48.9643 42.992L49.8283 43.088C50.1483 43.152 50.4363 43.184 50.6923 43.184C50.9483 43.184 51.2043 43.184 51.4603 43.184C53.8923 43.184 56.2923 42.768 58.6603 41.936C61.0923 41.104 63.5883 40.272 66.1483 39.44C68.7083 38.608 71.3643 38.192 74.1163 38.192C75.0763 38.192 76.1003 38.288 77.1883 38.48C78.3403 38.608 79.3323 38.96 80.1643 39.536C80.9963 40.112 81.4123 41.04 81.4123 42.32C81.4123 43.728 80.8043 44.944 79.5883 45.968C78.4363 46.992 77.2843 47.76 76.1323 48.272C75.8763 48.4 75.6843 48.464 75.5563 48.464C75.3643 48.464 75.2683 48.4 75.2683 48.272C75.2683 47.952 75.5243 47.696 76.0363 47.504C76.5483 47.312 76.8043 46.864 76.8043 46.16C76.8043 45.392 76.4203 44.88 75.6523 44.624C74.8843 44.304 74.0523 44.112 73.1563 44.048C72.2603 43.984 71.5563 43.952 71.0443 43.952C68.6123 43.952 66.1803 44.016 63.7483 44.144C61.3163 44.272 58.8843 44.336 56.4523 44.336C55.1723 44.336 53.8603 44.304 52.5163 44.24C51.1723 44.176 49.8603 44.08 48.5803 43.952C46.1483 49.008 43.4283 54 40.4203 58.928C37.4123 63.792 33.8923 68.208 29.8603 72.176C36.3883 71.728 42.8843 71.12 49.3483 70.352C55.8123 69.52 62.3403 69.104 68.9323 69.104C70.5963 69.104 72.6443 69.168 75.0763 69.296C77.5083 69.424 79.9083 69.744 82.2763 70.256C84.6443 70.768 86.6283 71.6 88.2283 72.752C89.8923 73.84 90.7243 75.408 90.7243 77.456C90.7243 77.968 90.5963 78.736 90.3403 79.76C90.0843 80.848 89.7323 81.808 89.2843 82.64C88.8363 83.472 88.2603 83.888 87.5563 83.888ZM30.4363 55.184C30.3723 55.184 30.3083 55.12 30.2443 54.992C30.2443 54.864 30.2443 54.768 30.2443 54.704C30.2443 54.32 30.2763 53.968 30.3403 53.648C30.4683 53.264 30.5643 52.912 30.6283 52.592C31.3323 49.712 31.9403 46.736 32.4523 43.664C32.9643 40.528 33.2203 37.488 33.2203 34.544C33.2203 34.032 33.1883 33.328 33.1243 32.432C33.0603 31.536 32.8683 30.704 32.5483 29.936C32.2923 29.168 31.8123 28.784 31.1083 28.784C30.4043 28.784 29.9563 29.04 29.7643 29.552C29.5723 30 29.3163 30.224 28.9963 30.224C28.8683 30.224 28.8043 30.128 28.8043 29.936C28.8043 29.808 28.8683 29.616 28.9963 29.36C29.5083 28.144 30.3083 26.992 31.3963 25.904C32.4843 24.816 33.7323 24.272 35.1403 24.272C36.2923 24.272 37.1563 24.656 37.7323 25.424C38.3083 26.192 38.6603 27.12 38.7883 28.208C38.9803 29.232 39.0763 30.192 39.0763 31.088C39.0763 34.8 38.3083 38.544 36.7723 42.32C35.3003 46.096 33.7643 49.648 32.1643 52.976C32.1003 53.232 31.8443 53.68 31.3963 54.32C31.0123 54.896 30.6923 55.184 30.4363 55.184ZM8.83625 80.528C10.5643 80.528 12.2283 80.112 13.8282 79.28C15.4283 78.512 16.8683 77.616 18.1483 76.592C15.7803 76.4 13.3163 75.952 10.7563 75.248C8.26025 74.544 6.18025 73.296 4.51625 71.504C4.13225 72.272 3.74825 72.976 3.36425 73.616C2.98025 74.256 2.78825 75.024 2.78825 75.92C2.78825 77.52 3.42825 78.672 4.70825 79.376C6.05225 80.144 7.42825 80.528 8.83625 80.528ZM134.794 77.648C133.642 77.648 132.522 77.104 131.434 76.016C130.346 74.928 129.802 73.808 129.802 72.656V72.176C131.722 60.72 135.402 50.48 140.842 41.456C146.282 32.368 153.354 24.048 162.058 16.496C162.122 16.432 162.218 16.4 162.346 16.4C162.73 16.4 162.922 16.592 162.922 16.976C162.922 17.104 162.858 17.296 162.73 17.552C160.682 19.6 158.602 22.16 156.49 25.232C154.378 28.24 152.33 31.536 150.346 35.12C148.362 38.704 146.538 42.384 144.874 46.16C143.274 49.936 141.866 53.584 140.65 57.104C139.498 60.56 138.666 63.696 138.154 66.512C139.882 63.696 141.994 60.72 144.49 57.584C147.05 54.384 149.706 51.312 152.458 48.368C155.21 45.36 157.834 42.736 160.33 40.496C161.674 39.344 163.338 37.936 165.322 36.272C167.306 34.544 169.45 32.848 171.754 31.184C174.122 29.456 176.426 28.048 178.666 26.96C180.906 25.808 182.922 25.232 184.714 25.232C186.314 25.232 187.594 25.68 188.554 26.576C189.514 27.408 190.218 28.496 190.666 29.84C191.114 31.12 191.402 32.496 191.53 33.968C191.658 35.44 191.722 36.752 191.722 37.904C191.722 41.808 191.402 45.776 190.762 49.808C190.186 53.84 189.546 57.744 188.842 61.52C191.146 58 193.546 54.096 196.042 49.808C198.538 45.456 201.226 41.008 204.106 36.464C206.986 31.92 210.058 27.568 213.322 23.408C216.586 19.184 220.074 15.408 223.786 12.08C227.498 8.688 231.498 6 235.786 4.016C240.074 2.032 244.682 1.04 249.61 1.04C250.634 1.04 251.786 1.168 253.066 1.424C254.346 1.616 255.466 2.064 256.426 2.768C257.45 3.408 257.962 4.4 257.962 5.744C257.962 6.064 257.802 6.704 257.482 7.664C257.226 8.56 256.874 9.392 256.426 10.16C256.042 10.928 255.658 11.312 255.274 11.312C255.21 11.312 255.178 11.216 255.178 11.024C255.178 10.576 255.274 10.128 255.466 9.68C255.722 9.232 255.85 8.752 255.85 8.23999C255.85 6.832 255.21 5.776 253.93 5.07199C252.714 4.368 251.338 3.92 249.802 3.72799C248.266 3.47199 246.986 3.34399 245.962 3.34399C241.93 3.34399 238.378 4.4 235.306 6.512C232.234 8.624 229.29 10.992 226.474 13.616C224.106 15.856 221.93 18.384 219.946 21.2C218.026 23.952 216.138 26.704 214.282 29.456C211.146 34.256 208.106 39.152 205.162 44.144C202.218 49.072 199.338 54.064 196.521 59.12C195.626 60.72 194.698 62.352 193.738 64.016C192.842 65.616 191.914 67.248 190.954 68.912C190.57 69.68 190.154 70.48 189.706 71.312C189.322 72.08 188.906 72.816 188.458 73.52C187.946 74.224 187.274 74.576 186.442 74.576C185.418 74.576 184.33 74.192 183.178 73.424C182.09 72.592 181.546 71.632 181.546 70.544C181.546 70.416 181.546 70.32 181.546 70.256C181.61 70.128 181.642 70.032 181.642 69.968C182.346 66.896 182.89 63.792 183.274 60.656C183.722 57.456 184.138 54.288 184.522 51.152C184.714 49.68 184.874 48.176 185.002 46.64C185.194 45.104 185.29 43.536 185.29 41.936C185.29 40.72 185.162 39.28 184.906 37.616C184.714 35.888 184.234 34.384 183.466 33.104C182.698 31.76 181.418 31.088 179.626 31.088C178.218 31.088 176.586 31.568 174.73 32.528C172.938 33.488 171.082 34.704 169.162 36.176C167.306 37.648 165.578 39.12 163.978 40.592C162.378 42 161.034 43.184 159.946 44.144C156.81 46.96 153.802 50.192 150.922 53.84C148.042 57.488 145.354 61.296 142.858 65.264C140.362 69.168 138.09 72.976 136.042 76.688C135.914 77.008 135.786 77.232 135.658 77.36C135.53 77.552 135.242 77.648 134.794 77.648ZM107.434 50.096C106.09 50.096 104.714 49.776 103.306 49.136C100.938 48.048 99.0815 46.576 97.7375 44.72C96.4575 42.8 95.8175 40.56 95.8175 38C95.8175 33.52 96.8415 29.584 98.8895 26.192C100.938 22.736 103.658 19.792 107.049 17.36C110.442 14.928 114.186 12.976 118.281 11.504C122.442 9.968 126.634 8.848 130.858 8.144C135.082 7.44 139.018 7.088 142.666 7.088C148.234 7.088 153.802 7.728 159.37 9.008C165.002 10.288 170.474 11.728 175.786 13.328C177.834 13.904 180.202 14.544 182.89 15.248C185.578 15.952 187.978 16.304 190.09 16.304C190.986 16.304 191.658 16.176 192.105 15.92C192.618 15.664 192.97 15.536 193.162 15.536C193.354 15.536 193.45 15.632 193.45 15.824C193.45 16.08 193.354 16.304 193.162 16.496C193.034 16.624 192.874 16.752 192.682 16.88C191.082 18.096 189.706 19.056 188.554 19.76C187.402 20.4 185.706 20.72 183.466 20.72C182.122 20.72 180.778 20.592 179.434 20.336C178.154 20.08 176.874 19.76 175.594 19.376C171.242 18.032 166.89 16.688 162.538 15.344C158.186 13.936 153.802 12.752 149.385 11.792C144.97 10.832 140.426 10.352 135.754 10.352C131.914 10.352 127.946 10.864 123.85 11.888C119.754 12.848 115.946 14.352 112.426 16.4C108.97 18.448 106.154 21.104 103.978 24.368C101.866 27.632 100.81 31.536 100.81 36.08C100.81 37.232 100.874 38.576 101.002 40.112C101.194 41.584 101.514 43.024 101.962 44.432C102.474 45.84 103.21 46.992 104.17 47.888C105.13 48.784 106.41 49.232 108.01 49.232C108.138 49.232 108.266 49.264 108.394 49.328C108.586 49.328 108.682 49.424 108.682 49.616C108.682 49.808 108.49 49.936 108.106 50C107.786 50.064 107.562 50.096 107.434 50.096ZM129.706 55.184C129.642 55.184 129.578 55.12 129.514 54.992C129.514 54.864 129.514 54.768 129.514 54.704C129.514 54.32 129.546 53.968 129.61 53.648C129.738 53.264 129.834 52.912 129.898 52.592C130.666 49.648 131.274 46.608 131.722 43.472C132.234 40.272 132.49 37.168 132.49 34.16C132.49 33.584 132.458 32.88 132.394 32.048C132.33 31.152 132.138 30.384 131.818 29.744C131.562 29.104 131.082 28.784 130.378 28.784C129.674 28.784 129.226 29.04 129.034 29.552C128.842 30 128.586 30.224 128.266 30.224C128.138 30.224 128.074 30.128 128.074 29.936C128.074 29.808 128.138 29.616 128.266 29.36C128.842 28.144 129.642 26.992 130.666 25.904C131.754 24.816 133.002 24.272 134.41 24.272C135.626 24.272 136.49 24.656 137.002 25.424C137.578 26.192 137.93 27.12 138.058 28.208C138.25 29.232 138.346 30.192 138.346 31.088C138.346 34.8 137.61 38.544 136.138 42.32C134.666 46.096 133.13 49.648 131.53 52.976C131.402 53.232 131.146 53.68 130.762 54.32C130.378 54.896 130.026 55.184 129.706 55.184Z" fill="#918F56"/>
<path d="M63.8766 91.66V90.96H69.1566V91.66H63.8766ZM80.5825 94.74H81.1025V98H71.5225V97.48L72.6225 97.36C72.8358 97.3333 72.9625 97.28 73.0025 97.2C73.0425 97.12 73.0625 96.8467 73.0625 96.38V86.02C73.0625 85.5533 73.0425 85.28 73.0025 85.2C72.9625 85.12 72.8358 85.0667 72.6225 85.04L71.5225 84.94V84.4H80.8425V87.66H80.3425L79.7625 85.56C79.7225 85.4 79.6758 85.2867 79.6225 85.22C79.5825 85.14 79.4958 85.0933 79.3625 85.08C79.2292 85.0533 79.0025 85.04 78.6825 85.04H74.8025V90.82H77.4825C77.8025 90.82 78.0292 90.8133 78.1625 90.8C78.2958 90.7733 78.3825 90.7267 78.4225 90.66C78.4758 90.58 78.5225 90.46 78.5625 90.3L78.9425 88.8H79.4625V93.48H78.9425L78.5625 91.98C78.5225 91.82 78.4758 91.7067 78.4225 91.64C78.3825 91.56 78.2958 91.5133 78.1625 91.5C78.0292 91.4733 77.8025 91.46 77.4825 91.46H74.8025V97.36H78.9225C79.2425 97.36 79.4692 97.3533 79.6025 97.34C79.7358 97.3133 79.8225 97.2667 79.8625 97.2C79.9158 97.12 79.9625 97 80.0025 96.84L80.5825 94.74ZM91.0241 89.6L88.1041 98H86.8041L83.8641 89.6C83.7307 89.2133 83.6307 88.98 83.5641 88.9C83.4974 88.82 83.3574 88.7667 83.1441 88.74L82.1241 88.64V88.1H86.6841V88.64L85.6641 88.74C85.4507 88.7667 85.3374 88.82 85.3241 88.9C85.3107 88.9667 85.3707 89.2 85.5041 89.6L87.9241 96.56L90.3041 89.6C90.4374 89.2 90.4974 88.9667 90.4841 88.9C90.4707 88.82 90.3574 88.7667 90.1441 88.74L89.1041 88.64V88.1H92.7441V88.64L91.7241 88.74C91.5107 88.7667 91.3707 88.82 91.3041 88.9C91.2507 88.9667 91.1574 89.2 91.0241 89.6ZM101.436 98.14C100.396 98.14 99.7828 97.66 99.5961 96.7C99.1294 97.2333 98.6161 97.62 98.0561 97.86C97.4961 98.0867 96.9428 98.2 96.3961 98.2C95.4628 98.2 94.7761 97.94 94.3361 97.42C93.8961 96.9 93.6761 96.2733 93.6761 95.54C93.6761 94.7533 93.9428 94.1333 94.4761 93.68C95.0228 93.2133 95.9628 92.98 97.2961 92.98H99.5561V91.36C99.5561 90.2933 99.3694 89.56 98.9961 89.16C98.6361 88.7467 98.1428 88.54 97.5161 88.54C97.1161 88.54 96.7561 88.62 96.4361 88.78C96.1161 88.94 95.8828 89.2333 95.7361 89.66C95.6028 90.0733 95.5894 90.68 95.6961 91.48L94.1161 91.24C94.0494 90.6133 94.1294 90.0533 94.3561 89.56C94.5961 89.0533 94.9828 88.6533 95.5161 88.36C96.0628 88.0533 96.7428 87.9 97.5561 87.9C98.5294 87.9 99.2761 88.0667 99.7961 88.4C100.316 88.72 100.676 89.14 100.876 89.66C101.089 90.18 101.196 90.7467 101.196 91.36V95.86C101.196 96.54 101.269 96.9667 101.416 97.14C101.576 97.3133 101.749 97.4 101.936 97.4C102.056 97.4 102.183 97.3733 102.316 97.32C102.449 97.2533 102.596 97.1533 102.756 97.02L103.116 97.52C102.916 97.6933 102.676 97.84 102.396 97.96C102.129 98.08 101.809 98.14 101.436 98.14ZM96.9561 97.36C97.3294 97.36 97.7294 97.26 98.1561 97.06C98.5961 96.8467 99.0628 96.4267 99.5561 95.8V93.62H97.5161C96.7694 93.62 96.2228 93.7733 95.8761 94.08C95.5428 94.3733 95.3761 94.8333 95.3761 95.46C95.3761 96.06 95.5028 96.5267 95.7561 96.86C96.0228 97.1933 96.4228 97.36 96.9561 97.36ZM120.428 98L117.028 86.52L113.668 98H112.348L109.428 85.9C109.335 85.5133 109.261 85.28 109.208 85.2C109.155 85.12 109.021 85.0667 108.808 85.04L107.788 84.94V84.4H112.448V84.94L111.428 85.04C111.215 85.0667 111.095 85.12 111.068 85.2C111.055 85.2667 111.095 85.5 111.188 85.9L113.568 95.9L116.908 84.4H118.148L121.528 95.82L123.928 85.9C124.035 85.5 124.068 85.2667 124.028 85.2C124.001 85.12 123.888 85.0667 123.688 85.04L122.648 84.94V84.4H126.288V84.94L125.268 85.04C125.068 85.0667 124.941 85.12 124.888 85.2C124.835 85.2667 124.755 85.5 124.648 85.9L121.728 98H120.428ZM137.49 97.48V98H134.41V96.4C133.943 97.0267 133.41 97.4867 132.81 97.78C132.223 98.06 131.637 98.2 131.05 98.2C130.103 98.2 129.363 97.9 128.83 97.3C128.31 96.6867 128.05 95.8267 128.05 94.72V89.72C128.05 89.2533 128.03 88.98 127.99 88.9C127.95 88.82 127.823 88.7667 127.61 88.74L126.51 88.64V88.1H129.69V94.7C129.69 95.6867 129.837 96.3867 130.13 96.8C130.437 97.2 130.877 97.4 131.45 97.4C131.877 97.4 132.343 97.2667 132.85 97C133.37 96.7333 133.857 96.22 134.31 95.46V89.72C134.31 89.2533 134.29 88.98 134.25 88.9C134.21 88.8067 134.083 88.7533 133.87 88.74L132.37 88.64V88.1H135.95V96.38C135.95 96.8467 135.97 97.12 136.01 97.2C136.05 97.28 136.177 97.3333 136.39 97.36L137.49 97.48ZM138.838 91.66V90.96H144.118V91.66H138.838Z" fill="#EDECD1"/>
</svg>
